<!DOCTYPE svg PUBLIC "-//W3C//DTD SVG 20010904//EN" "http://www.w3.org/TR/2001/REC-SVG-20010904/DTD/svg10.dtd">
<svg version="1.0" xmlns="http://www.w3.org/2000/svg" width="512px" height="512px" viewBox="0 0 5120 5120" preserveAspectRatio="xMidYMid meet">
<g id="layer101" fill="#000000" stroke="none">
 <path d="M1514 4543 c-7 -5 -19 -25 -28 -46 -20 -48 -76 -257 -76 -284 0 -29 34 -57 63 -49 27 6 40 29 59 101 l14 50 69 -132 70 -133 62 0 61 0 -60 113 c-33 61 -73 136 -89 164 l-29 53 126 -81 c69 -44 138 -82 153 -85 51 -11 79 43 44 83 -27 30 -371 243 -402 249 -14 2 -31 1 -37 -3z"/>
 <path d="M2786 3964 c-9 -8 -16 -25 -16 -37 1 -12 184 -377 409 -812 l408 -790 -516 -5 c-284 -3 -522 -9 -528 -13 -8 -5 -13 -29 -13 -58 0 -46 28 -101 396 -786 218 -406 409 -762 425 -790 l29 -53 -126 81 c-69 44 -138 82 -153 85 -51 11 -79 -43 -43 -83 20 -23 359 -237 391 -248 54 -17 69 10 122 202 16 60 29 117 29 129 0 30 -34 58 -63 50 -26 -6 -40 -29 -59 -100 l-13 -50 -405 754 c-223 414 -406 757 -408 762 -2 4 203 8 455 9 480 0 588 5 604 30 5 8 8 28 5 44 -5 38 -842 1665 -865 1682 -22 17 -47 16 -65 -3z"/>
 <path d="M1855 3738 c36 -68 78 -147 93 -175 l26 -53 63 0 62 0 -42 78 c-23 42 -65 120 -93 172 l-52 95 -61 3 -62 3 66 -123z"/>
 <path d="M2080 3323 c0 -5 36 -73 79 -153 l78 -145 63 -3 62 -3 -60 113 c-119 222 -99 198 -164 198 -32 0 -58 -3 -58 -7z"/>
 <path d="M2339 2835 c11 -20 21 -38 21 -41 0 -2 -106 -4 -235 -4 l-235 0 0 -57 0 -56 283 6 c155 3 290 8 300 12 31 13 31 51 1 113 l-29 57 -64 3 -64 3 22 -36z"/>
 <path d="M1367 2781 c-84 -9 -95 -36 -52 -128 l24 -53 61 0 60 0 -20 40 -20 40 150 0 150 0 0 55 0 55 -147 -1 c-82 -1 -174 -5 -206 -8z"/>
 <path d="M1562 2171 l123 -241 58 0 c31 0 57 3 57 8 0 4 -54 111 -119 237 l-118 230 -62 3 -62 3 123 -240z"/>
 <path d="M1810 1694 c0 -4 28 -60 63 -125 l62 -119 58 0 c31 0 57 3 57 6 0 4 -28 60 -62 125 l-63 119 -57 0 c-32 0 -58 -3 -58 -6z"/>
 <path d="M2108 1232 l-57 -3 46 -94 c48 -96 74 -122 112 -110 39 12 37 51 -5 134 l-39 76 -57 -3z"/>
 </g>

</svg>