<!DOCTYPE svg PUBLIC "-//W3C//DTD SVG 20010904//EN" "http://www.w3.org/TR/2001/REC-SVG-20010904/DTD/svg10.dtd">
<svg version="1.0" xmlns="http://www.w3.org/2000/svg" width="512px" height="512px" viewBox="0 0 5120 5120" preserveAspectRatio="xMidYMid meet">
<g id="layer101" fill="#ffffff" stroke="none">
 <path d="M1503 4538 c-26 -33 -96 -272 -95 -321 1 -38 18 -57 52 -57 36 0 56 24 72 90 l14 54 63 -119 c35 -66 68 -126 73 -132 12 -15 114 -18 122 -4 3 4 -32 78 -77 163 l-83 154 123 -78 c123 -78 165 -92 191 -66 19 19 14 63 -10 85 -13 11 -103 70 -200 131 -177 112 -222 130 -245 100z"/>
 <path d="M2782 3968 c-7 -7 -12 -26 -12 -42 1 -21 139 -300 403 -811 l403 -780 -186 -6 c-102 -4 -328 -7 -502 -8 -178 0 -328 -5 -342 -11 -23 -8 -26 -15 -26 -55 0 -41 41 -123 406 -803 223 -416 414 -771 424 -788 17 -29 8 -25 -106 47 -124 79 -166 93 -192 67 -19 -19 -14 -63 11 -85 12 -11 102 -70 200 -132 246 -155 242 -156 308 81 44 157 40 198 -21 198 -36 0 -56 -24 -72 -89 l-14 -54 -402 749 -402 749 208 6 c114 3 343 7 510 8 l303 1 25 26 c20 19 24 31 19 51 -8 33 -842 1652 -863 1676 -17 20 -62 23 -80 5z"/>
 <path d="M1795 3860 c-3 -5 36 -88 87 -183 l93 -172 54 -3 c30 -2 58 1 63 6 5 5 -32 83 -85 183 l-94 174 -56 3 c-31 2 -58 -2 -62 -8z"/>
 <path d="M2076 3332 c-3 -4 33 -78 79 -163 l83 -154 52 -3 c29 -2 57 1 63 7 6 6 -13 51 -54 128 -106 199 -100 193 -164 193 -29 0 -56 -4 -59 -8z"/>
 <path d="M2325 2871 c-3 -6 1 -24 10 -41 l16 -30 -178 -1 c-98 -1 -203 -4 -233 -7 l-55 -7 0 -50 0 -50 280 -2 c210 -2 286 0 305 10 36 18 37 60 3 127 l-28 55 -57 3 c-31 2 -59 -2 -63 -7z"/>
 <path d="M1305 2766 c-32 -32 -31 -38 5 -113 l29 -63 59 0 c32 0 61 3 65 6 3 3 -3 20 -14 37 l-19 32 148 5 147 5 0 55 0 55 -198 3 -197 2 -25 -24z"/>
 <path d="M1445 2410 c-3 -5 49 -117 117 -248 l123 -237 54 -3 c30 -2 58 1 62 5 5 5 -47 117 -115 248 l-123 240 -56 3 c-31 2 -58 -2 -62 -8z"/>
 <path d="M1807 1704 c-6 -6 69 -161 113 -231 18 -31 24 -33 73 -33 30 0 57 3 60 6 6 6 -69 161 -113 232 -18 30 -24 32 -73 32 -30 0 -57 -3 -60 -6z"/>
 <path d="M2048 1234 c-7 -6 76 -169 100 -196 17 -21 62 -24 80 -6 21 21 13 66 -23 138 l-35 70 -58 0 c-32 0 -61 -3 -64 -6z"/>
 </g>

</svg>